<svg xmlns="http://www.w3.org/2000/svg" shape-rendering="geometricPrecision" text-rendering="geometricPrecision" image-rendering="optimizeQuality" fill-rule="evenodd" clip-rule="evenodd" viewBox="0 0 512 468.554"><path fill="#fff" fill-rule="nonzero" d="M483.381 151.575H28.619v219.35c0 37.906 31.106 69.009 69.013 69.009h316.736c37.884 0 69.013-31.125 69.013-69.009v-219.35z"/><path fill="#FD5" d="M353.177 122.962l36.214-92.199c.286-.725.621-1.441.999-2.144H284.447l-37.054 94.343h105.784zm62.346-94.33l-37.051 94.33h104.909v-25.33c0-18.947-7.773-36.205-20.295-48.724-12.255-12.258-29.061-19.967-47.563-20.276zM88.36 122.962l36.214-92.199c.287-.725.621-1.441.999-2.144H97.632c-18.963 0-36.218 7.77-48.731 20.283-12.512 12.512-20.282 29.767-20.282 48.73v25.33H88.36zm62.353-94.343l-37.058 94.343h108.681l36.129-91.983c.315-.798.687-1.587 1.116-2.36H150.713z"/><path fill="#212121" fill-rule="nonzero" d="M97.632 0h316.736C468.073 0 512 43.928 512 97.632v273.293c0 53.682-43.95 97.629-97.632 97.629H97.632C43.927 468.554 0 424.629 0 370.925V97.632C0 43.902 43.902 0 97.632 0zm255.545 122.962l36.214-92.199c.286-.725.621-1.441.999-2.144H284.447l-37.054 94.343h105.784zm62.346-94.33l-37.051 94.33h104.909v-25.33c0-37.461-30.413-68.377-67.858-69zM88.36 122.962l36.214-92.199c.287-.725.621-1.441.999-2.144H97.632c-37.929 0-69.013 31.084-69.013 69.013v25.33H88.36zm62.353-94.343l-37.058 94.343h108.681l36.129-91.983c.315-.798.687-1.587 1.116-2.36H150.713zm332.668 122.956H28.619v219.35c0 37.906 31.106 69.009 69.013 69.009h316.736c37.884 0 69.013-31.125 69.013-69.009v-219.35z"/><path fill="#212121" d="M220.492 304.455l102.134-102.133a3.208 3.208 0 015.326 1.294c3.223 7.744 3.736 15.335 2.095 22.477-1.772 7.712-6.049 14.839-12.126 21.016l-77.09 78.167a44.81 44.81 0 013.044 8.354 45.368 45.368 0 011.4 11.208c0 12.507-5.07 23.831-13.266 32.028-8.196 8.196-19.52 13.266-32.027 13.266-12.506 0-23.831-5.07-32.027-13.266-8.196-8.197-13.266-19.521-13.266-32.028 0-12.507 5.07-23.83 13.266-32.026 8.196-8.197 19.52-13.267 32.027-13.267 4.057 0 7.999.539 11.759 1.547a45.013 45.013 0 018.751 3.363zm-21.737 20.274c10.99 0 19.899 8.909 19.899 19.899s-8.909 19.899-19.899 19.899-19.899-8.909-19.899-19.899 8.909-19.899 19.899-19.899zm113.92 0c10.99 0 19.898 8.909 19.898 19.899s-8.908 19.899-19.898 19.899-19.899-8.909-19.899-19.899 8.909-19.899 19.899-19.899zm-26.198-25.304l5.031 5.03a45.013 45.013 0 018.751-3.363 45.357 45.357 0 0111.759-1.547c12.507 0 23.831 5.07 32.027 13.267 8.196 8.196 13.266 19.519 13.266 32.026 0 12.507-5.07 23.831-13.266 32.028-8.196 8.196-19.52 13.266-32.027 13.266-12.507 0-23.831-5.07-32.027-13.266-8.196-8.197-13.266-19.521-13.266-32.028 0-3.863.486-7.619 1.4-11.208a44.81 44.81 0 013.044-8.354l-5.904-6.02a3.202 3.202 0 01.163-4.524l16.452-15.247.06-.06a3.208 3.208 0 014.537 0zm-96.175-96.176l55.421 55.423-.003.004.104.108a3.203 3.203 0 01-.213 4.525l-16.469 14.979-.002-.003a3.2 3.2 0 01-4.435-.123l-29.698-30.125c-6.077-6.178-10.354-13.304-12.127-21.016-1.641-7.142-1.127-14.734 2.096-22.477a3.21 3.21 0 015.326-1.295z"/></svg>